<svg xmlns="http://www.w3.org/2000/svg"  viewBox="0 0 48 48" width="48px" height="48px"><path fill="#fcbf95" d="M46.9,20.9c-1.4-0.6-3.3-0.9-4.9-1.4c-1.6-0.5-2-0.6-3.7-1c-3.5-0.8-8.2-2-12.3-2c-7.1,0-13.3,1.4-18.7,3.4 c-1.3,0.5-2.7,0.5-3.8,1c-0.9,0.4-1.9,1.4-2.8,1.9c-0.1,0.7-0.2,1.5-0.2,2.3c0,1.5,1.1,6.1,1.5,7.5c0.5,1.6,1.1,2.1,2,3.5 c1.2,1.8,1.6,2.1,3.5,3.5C9,40.6,9.2,41.2,11,42c1.6,0.7,2.7,1.1,4.5,1.5c1.9,0.4,6.4,1,8.5,1c0.5,0,1,0,1.5,0c1-0.1,3-0.3,4-0.5 c1.6-0.3,2.2-0.5,3.7-1c2.3-0.8,3.5-1.2,5.3-2.5c2.1-1.5,4.7-3.5,6-5.5c0.4-0.6,1-2.3,1.3-3c0.2-0.3,0.5-2.2,0.7-2.5 c0.8-1.9,1-2.4,1-4.5C47.5,23.6,47.3,22.2,46.9,20.9z"/><path fill="#d6e5e5" d="M29.9,17c-1.1,0-2.1,0.4-3,1.1c-0.1,0.1-0.2,0.2-0.3,0.3C25.6,19.5,25,21,25,22.8c0,2.3,0.9,4.8,2.4,6.3 c1.1,1,2.5,1.4,4,1.5c0.8,0,1.5-0.1,2.1-0.4c0.6-0.3,1.4-0.6,1.9-1.1c0.4-0.5,0.5-1.2,0.8-1.9c0.4-1.1,0.5-2.3,0.3-3.6 c-0.2-1.1-0.3-1.2-0.9-2.1c-0.5-0.8-0.6-1.8-1.3-2.4c-1-0.9-2.3-1.9-3.5-2C30.6,17,30,17,29.9,17z"/><path fill="#d6e5e5" d="M20.1,16.9c-0.1,0-0.2,0-0.3,0c-1,0.1-1.9,0.4-2.8,1c-0.8,0.5-1.4,0.9-2,1.7c-0.7,1-1.2,1.7-1.4,3 c-0.1,0.9-0.1,2.6,0,3.4c0.1,0.7,0.1,1.6,0.5,2.2c0.1,0.2,0.7,0.8,0.9,1c0.9,1.2,2.2,1.3,3.7,1.2c1.8-0.1,3.3-0.4,4.6-2.6 c1-1.5,1.8-3.3,1.8-5.2c0-1.8-0.4-3.5-1.4-4.6C22.7,17.2,21.3,16.9,20.1,16.9z"/><path fill="#f3ad20" d="M1.1,20.3c-0.2,0.8-0.3,1.6-0.4,2.5c0.9-0.4,1.9-1.5,2.8-1.9c1.2-0.5,2.5-0.5,3.8-1c5.4-2,11.5-3.4,18.7-3.4 c4.1,0,8.8,1.2,12.3,2c1.7,0.4,2.1,0.5,3.7,1c1.6,0.5,3.6,0.8,5,1.4c-0.2-0.8-0.4-1.7-0.7-2.5c-0.9-0.3-1.8-0.7-2.7-1 c-0.9-0.3-1.7-0.6-2.6-0.8c-1.2-0.3-1.7-0.2-2.9-0.4c-0.7-0.1-1.9-0.7-2.6-0.9c-3.2-0.6-6.3-0.9-9.5-0.9c-1,0-2,0-3,0.1 c-1,0.1-3.2,0.1-4.2,0.2c-2.1,0.2-2.1,0.6-4,1.1c-0.5,0.1-1.8,0.2-2.3,0.4c-0.2,0-0.4,0.1-0.6,0.1c-0.2,0.1-1.1,0.2-1.3,0.2 c-0.5,0.1-2.5,0.6-2.9,0.7c-2,0.6-1.6,0.5-3.3,1.2C3.2,19,2.1,19.8,1.1,20.3z"/><path fill="#74cccf" d="M4.4,18.5c1.7-0.7,1.4-0.6,3.3-1.2c0.5-0.1,2.5-0.6,2.9-0.7c0.2-0.1,1.1-0.2,1.3-0.2c0.2,0,0.4-0.1,0.6-0.1 c0.5-0.1,1.8-0.2,2.3-0.4c1.9-0.4,2-0.8,4-1.1c1-0.1,3.2-0.1,4.2-0.2c1-0.1,2-0.1,3-0.1c3.2,0,6.3,0.3,9.5,0.9 c0.7,0.1,1.9,0.7,2.6,0.9c1.2,0.3,1.8,0.1,2.9,0.4c0.9,0.3,1.8,0.5,2.6,0.8c0.9,0.3,1.8,0.6,2.7,1c0,0,0,0,0,0c0,0,0,0,0,0 c-0.4-0.9-0.8-1.7-1.3-2.5c-2-3.5-2.5-3.5-4.5-5.5c-2.8-2.8-4.2-2.7-6-3.5C31.1,5.4,28.1,5.5,24,5.5c-3.6,0-7,0.8-10,2 c-0.3,0.1-0.7,0.4-1,0.5c-2.6,1.1-4.1,1.2-6,3c-0.6,0.6-1.5,1.8-2,2.5c-0.2,0.2-0.8,1.3-1,1.5c-0.6,0.7-1.1,1-1.5,1.8 c-0.6,1.1-1.1,2.3-1.4,3.5c0,0,0.1,0,0.2-0.1C2.2,19.7,3.2,19,4.4,18.5z"/><polygon fill="#f3ad20" points="24.6,7.5 25.8,7.5 26.9,6.2 28.9,6.8 29.5,6 29.2,4.9 27.2,4.2 25.9,2.9 24,2.5 23.1,3.5 20,3.5 18.1,4.9 17.1,5.4 16.5,6.8 16.7,7.5 18.2,7.5 20.5,5.5 20.7,7.3 23,6.2"/><g><path fill="#010101" d="M31.6,31c-0.1,0-0.1,0-0.2,0c-1.9-0.1-3.3-0.6-4.3-1.6c-1.6-1.5-2.6-4.1-2.6-6.6c0-1.9,0.6-3.6,1.8-4.7 c0.1-0.1,0.2-0.2,0.3-0.3c0.9-0.8,2.1-1.2,3.3-1.2c0.1,0,0.7,0,0.9,0c1.4,0.1,2.7,1.1,3.8,2.1c0.5,0.4,0.7,1,1,1.6 c0.1,0.3,0.2,0.6,0.4,0.9l0.2,0.3c0.4,0.6,0.6,1,0.7,2c0.2,1.3,0.1,2.6-0.3,3.8c-0.1,0.2-0.1,0.4-0.2,0.5c-0.2,0.5-0.3,1.1-0.7,1.5 c-0.5,0.6-1.1,0.9-1.7,1.1l-0.3,0.1C33.1,30.8,32.3,31,31.6,31z M29.9,17.5c-1,0-1.9,0.3-2.7,1c-0.1,0.1-0.2,0.2-0.3,0.2 c-1,1-1.5,2.4-1.5,4c0,2.3,0.9,4.6,2.2,5.9c0.9,0.8,2,1.2,3.7,1.3c0.7,0,1.3-0.1,1.9-0.4l0.3-0.1c0.5-0.2,1-0.5,1.4-0.8 c0.2-0.3,0.4-0.7,0.5-1.2c0.1-0.2,0.1-0.4,0.2-0.6c0.4-1,0.4-2.1,0.3-3.3c-0.1-0.8-0.2-1-0.6-1.6l-0.2-0.3c-0.2-0.3-0.3-0.7-0.5-1 c-0.2-0.5-0.4-1-0.7-1.2c-0.7-0.6-2.1-1.8-3.2-1.9C30.6,17.5,30,17.5,29.9,17.5z"/><path fill="#010101" d="M18.1,31c-1.2,0-2.5-0.2-3.5-1.4c-0.1-0.1-0.1-0.2-0.2-0.3c-0.3-0.4-0.6-0.6-0.7-0.8c-0.3-0.5-0.4-1.1-0.5-1.7 c0-0.2-0.1-0.4-0.1-0.6c-0.2-0.9-0.1-2.6,0-3.5c0.2-1.4,0.7-2.2,1.5-3.2c0.6-0.9,1.3-1.3,2-1.8l0.1-0.1c0.9-0.6,2-1,3-1.1 c0.1,0,0.2,0,0.3,0c0.9,0,2.7,0.2,3.8,1.4c1,1,1.6,2.8,1.6,4.9c0,2.3-1,4.2-1.8,5.5c-1.4,2.2-3,2.7-5,2.8C18.4,31,18.2,31,18.1,31z M20.1,17.4c-0.1,0-0.2,0-0.3,0c-0.9,0.1-1.7,0.4-2.5,0.9l-0.1,0.1c-0.7,0.5-1.3,0.9-1.8,1.5c-0.7,1-1.1,1.6-1.3,2.8 c-0.1,0.9-0.1,2.5,0,3.2c0,0.2,0.1,0.4,0.1,0.6c0.1,0.5,0.1,1,0.3,1.4c0.1,0.1,0.4,0.5,0.6,0.7c0.1,0.1,0.2,0.2,0.2,0.3 c0.8,1,1.8,1.1,3.2,1c1.8-0.1,3-0.5,4.2-2.3c1.2-1.9,1.7-3.4,1.7-5c0-1.3-0.2-3.2-1.3-4.2C22.3,17.5,20.8,17.4,20.1,17.4z"/><circle cx="22" cy="24" r="1" fill="#010101"/><circle cx="29" cy="24" r="1" fill="#010101"/><path fill="#010101" d="M24,42.1c-2.4,0-5-0.6-6.7-1c-0.6-0.1-1-0.2-1.4-0.3l-0.2,0c-1.4-0.2-1.5-0.3-2.6-1.1 c-0.5-0.4-0.8-0.5-1.2-0.7c-0.4-0.2-1-0.4-1.7-0.9c-1.1-0.7-2.5-1.8-3.4-2.5c-0.3-0.2-0.5-0.4-0.6-0.4C6.1,34.8,6,34.6,6,34.4 C6.1,34.1,6.3,34,6.6,34c0.1,0,0.1,0,0.8,0.6c0.8,0.6,2.3,1.8,3.3,2.5c0.7,0.5,1.2,0.7,1.6,0.8c0.5,0.2,0.9,0.4,1.5,0.9 c0.9,0.7,0.9,0.7,2.1,0.9l0.2,0c0.4,0.1,0.8,0.2,1.4,0.3c2,0.5,4.9,1.2,7.4,1c5.8-0.4,8.6-1.7,11.8-3.9c0.5-0.3,3.1-2.2,3.5-2.5 c0.2-0.2,0.4-0.2,0.7-0.3c0.1,0,0.3-0.1,0.3-0.2c0.6-0.5,0.8-0.8,0.9-0.8c0.1-0.2,0.3-0.3,0.5-0.3c0.3,0,0.5,0.3,0.4,0.6 c0,0.1,0,0.4-1.2,1.3c-0.2,0.1-0.4,0.2-0.6,0.3c-0.2,0.1-0.3,0.1-0.4,0.2c-0.4,0.3-3.1,2.2-3.5,2.5C34,40.2,31,41.6,25,42 C24.7,42.1,24.3,42.1,24,42.1z"/><path fill="#010101" d="M24.7,40c-2.6,0-4.4-1-4.5-1.1c-0.2-0.1-0.3-0.4-0.2-0.7c0.1-0.2,0.4-0.3,0.7-0.2c0,0,1.8,1,4.2,0.9 c0.8,0,2.7-0.7,3.3-1c0.3-0.1,0.5,0,0.6,0.3s0,0.5-0.3,0.6c-0.3,0.1-2.6,1-3.7,1C24.9,40,24.8,40,24.7,40z"/><path fill="#010101" d="M26.5,37c-3.1,0-5.1-1-5.2-1.1c-0.2-0.1-0.3-0.4-0.2-0.7c0.1-0.2,0.4-0.3,0.7-0.2c0,0,2.4,1.2,5.7,0.9 c0.3,0,0.5,0.2,0.5,0.5S27.8,37,27.5,37C27.2,37,26.8,37,26.5,37z"/><path fill="#010101" d="M0.7,23.3c-0.1,0-0.2,0-0.3-0.1c-0.2-0.1-0.2-0.3-0.2-0.5c0.1-0.8,0.2-1.7,0.4-2.5c0.1-0.3,0.4-0.4,0.6-0.3 c0.3,0.1,0.4,0.4,0.3,0.6c-0.1,0.4-0.2,0.9-0.3,1.3c0.1-0.1,0.2-0.2,0.3-0.3c0.5-0.4,1.1-0.8,1.6-1.1C4,20.1,4.7,20,5.4,19.8 c0.6-0.1,1.2-0.2,1.8-0.4C13.4,17.1,19.5,16,26,16c3.7,0,7.9,1,11.3,1.7l1.4,0.3c1.6,0.4,2,0.5,3.5,1c0.7,0.2,1.4,0.4,2.1,0.6 c0.7,0.2,1.4,0.3,2,0.5c-0.1-0.5-0.3-1-0.5-1.5c-0.1-0.3,0-0.5,0.3-0.7c0.3-0.1,0.5,0,0.7,0.3c0.3,0.8,0.5,1.5,0.7,2.3l0.1,0.3 c0,0.2,0,0.4-0.2,0.5c-0.1,0.1-0.3,0.2-0.5,0.1C46,21.1,45,20.8,44,20.6c-0.7-0.2-1.5-0.4-2.2-0.6c-1.5-0.5-1.9-0.6-3.4-0.9 L37,18.7C33.7,18,29.6,17,26,17c-6.3,0-12.4,1.1-18.5,3.3c-0.6,0.2-1.3,0.4-1.9,0.5c-0.7,0.1-1.3,0.3-1.9,0.5c-0.4,0.2-1,0.6-1.4,1 c-0.5,0.4-0.9,0.7-1.4,0.9C0.8,23.2,0.7,23.3,0.7,23.3z"/><path fill="#010101" d="M46.8,18.3c-0.4-0.9-0.9-1.8-1.3-2.5c-1.6-2.8-2.3-3.4-3.5-4.5c-0.3-0.3-0.7-0.6-1.1-1.1C38.7,8,37.3,7.5,36,7 c-0.4-0.1-0.8-0.3-1.3-0.5c-1.9-0.9-3.6-1.2-5.5-1.4L29.5,6l-0.1,0.2c1.7,0.2,3.2,0.5,4.9,1.3c0.5,0.2,0.9,0.4,1.3,0.5 c1.3,0.5,2.5,0.9,4.5,2.9c0.5,0.5,0.8,0.8,1.2,1.1c1.1,1.1,1.7,1.6,3.3,4.3c0.2,0.4,0.5,0.9,0.7,1.3c-0.5-0.2-1-0.4-1.5-0.5 c-0.9-0.3-1.8-0.6-2.6-0.8c-0.7-0.2-1.2-0.2-1.7-0.3c-0.4,0-0.8-0.1-1.3-0.2c-0.3-0.1-0.7-0.2-1.1-0.4c-0.5-0.2-1.1-0.4-1.5-0.5 c-4.2-0.8-8.4-1-12.6-0.8c-0.4,0-0.8,0-1.4,0.1c-1,0-2.2,0.1-2.8,0.2c-1.3,0.1-1.8,0.4-2.5,0.6c-0.4,0.2-0.9,0.3-1.6,0.5 c-0.2,0.1-0.6,0.1-1,0.2c-0.5,0.1-1,0.1-1.3,0.2c-0.1,0-0.2,0-0.2,0.1c-0.1,0-0.2,0-0.3,0.1c-0.1,0-0.3,0.1-0.6,0.1 c-0.3,0-0.6,0.1-0.7,0.1c-0.2,0.1-0.7,0.2-1.2,0.3c-0.7,0.2-1.5,0.4-1.8,0.4c-1.5,0.5-1.7,0.5-2.4,0.8c-0.2,0.1-0.5,0.2-0.9,0.4 c-0.7,0.3-1.4,0.7-2,1.1c-0.1,0.1-0.2,0.1-0.3,0.2c0.3-0.8,0.6-1.5,1-2.2c0.2-0.4,0.5-0.7,0.8-1c0.2-0.2,0.5-0.5,0.7-0.8 c0.1-0.1,0.3-0.4,0.5-0.7c0.2-0.3,0.4-0.7,0.5-0.8c0.2-0.2,0.4-0.6,0.7-0.9c0.4-0.6,0.9-1.2,1.3-1.6c1.3-1.2,2.4-1.6,3.9-2.1 c0.6-0.2,1.2-0.4,2-0.8c0.2-0.1,0.3-0.2,0.5-0.3C13.9,8.1,14,8,14.2,8c0.8-0.3,1.6-0.6,2.4-0.8l-0.1-0.4l0.3-0.7c-1,0.3-2,0.6-3,1 c-0.2,0.1-0.4,0.2-0.6,0.3c-0.1,0.1-0.3,0.2-0.4,0.2c-0.7,0.3-1.3,0.5-1.9,0.7c-1.6,0.6-2.8,1-4.2,2.4c-0.4,0.4-1,1.1-1.4,1.7 C5,12.7,4.8,13,4.6,13.2c-0.1,0.1-0.4,0.5-0.6,0.9c-0.2,0.3-0.3,0.5-0.4,0.6C3.4,15,3.2,15.2,3,15.4c-0.3,0.3-0.6,0.6-0.9,1.2 c-0.6,1.2-1.1,2.4-1.5,3.6c-0.1,0.2,0,0.4,0.2,0.5c0.1,0.1,0.2,0.1,0.3,0.1c0.1,0,0.1,0,0.2,0c0,0,0.1,0,0.1-0.1 c0.4-0.2,0.8-0.5,1.3-0.7c0.6-0.4,1.2-0.7,1.9-1c0.4-0.2,0.7-0.3,1-0.4c0.7-0.3,0.9-0.4,2.3-0.8c0.3-0.1,1-0.3,1.7-0.4 c0.5-0.1,1-0.2,1.2-0.3c0.1,0,0.4-0.1,0.6-0.1c0.3,0,0.6-0.1,0.7-0.1c0.1,0,0.2,0,0.3-0.1c0.1,0,0.2,0,0.3-0.1 c0.2-0.1,0.7-0.1,1.2-0.2s0.9-0.1,1.1-0.2c0.8-0.2,1.3-0.4,1.8-0.5c0.6-0.2,1.1-0.4,2.2-0.5c0.6-0.1,1.8-0.1,2.8-0.1 c0.5,0,1,0,1.4-0.1c4.1-0.2,8.3,0,12.4,0.8c0.3,0.1,0.8,0.2,1.3,0.4c0.5,0.2,0.9,0.4,1.3,0.4c0.6,0.1,1,0.2,1.4,0.2 c0.5,0,0.9,0.1,1.5,0.2c0.9,0.3,1.7,0.5,2.6,0.8c0.9,0.3,1.7,0.6,2.5,0.9c0,0,0.1,0,0.1,0c0,0,0.1,0,0.1,0c0.2,0,0.4,0,0.5-0.2 C46.8,18.7,46.8,18.5,46.8,18.3z"/><path fill="#010101" d="M25.8,8h-1.2c-0.1,0-0.2,0-0.3-0.1L23,6.8l-2,1c-0.1,0.1-0.3,0.1-0.5,0c-0.1-0.1-0.2-0.2-0.3-0.4l-0.1-0.9 l-1.6,1.4C18.4,8,18.3,8,18.2,8h-1.5c-0.2,0-0.4-0.2-0.5-0.4L16,6.9c0-0.1,0-0.2,0-0.3l0.6-1.4c0-0.1,0.1-0.2,0.3-0.3l1-0.4 l1.8-1.4C19.8,3,19.9,3,20,3h2.9l0.7-0.8C23.7,2,23.9,2,24.1,2L26,2.4c0.1,0,0.2,0.1,0.3,0.1l1.3,1.3l1.8,0.6 c0.2,0.1,0.3,0.2,0.3,0.3L30,5.9c0,0.1,0,0.3-0.1,0.4l-0.6,0.8c-0.1,0.2-0.3,0.3-0.6,0.2l-1.7-0.5l-0.9,1.1C26.1,7.9,26,8,25.8,8z M24.8,7h0.7l0.9-1.1c0.1-0.2,0.3-0.2,0.5-0.2l1.7,0.5L29,5.9l-0.2-0.6l-1.7-0.6c-0.1,0-0.1-0.1-0.2-0.1l-1.3-1.2L24.2,3l-0.7,0.8 C23.4,3.9,23.3,4,23.1,4h-3l-1.8,1.3c0,0-0.1,0-0.1,0.1l-0.9,0.4L17,6.8l0,0.2H18l2.2-1.9C20.3,5,20.5,5,20.7,5 C20.9,5.1,21,5.3,21,5.4l0.1,1.1l1.7-0.8c0.2-0.1,0.4-0.1,0.5,0.1L24.8,7z"/><path fill="#010101" d="M24,45c-2.1,0-6.7-0.6-8.6-1c-1.7-0.4-2.9-0.8-4.6-1.5c-1.3-0.6-1.8-1-2.5-1.6c-0.3-0.3-0.7-0.6-1.1-1 l-0.3-0.2c-1.7-1.3-2.1-1.6-3.3-3.4c-0.2-0.3-0.4-0.6-0.6-0.9c-0.6-0.8-1.1-1.5-1.4-2.7C1.1,31.3,0,26.7,0,25 c0-0.7,0.1-1.4,0.2-2.3c0-0.3,0.3-0.5,0.6-0.4c0.3,0,0.5,0.3,0.4,0.6C1.1,23.6,1,24.3,1,25c0,1.5,1.1,5.9,1.5,7.4 c0.3,1.1,0.7,1.6,1.3,2.4c0.2,0.3,0.4,0.6,0.6,0.9c1.1,1.7,1.5,2,3.1,3.2l0.3,0.2c0.5,0.4,0.9,0.7,1.2,1c0.6,0.5,1.1,0.9,2.2,1.4 c1.6,0.7,2.7,1.1,4.4,1.5c1.8,0.4,6.3,1,8.4,1c0.5,0,1,0,1.5,0c1-0.1,3-0.3,3.9-0.5c1.4-0.2,1.9-0.4,3-0.8l0.8-0.3 c2.1-0.7,3.2-1.1,5-2.4c2.9-2.1,4.9-3.8,5.9-5.4c0.2-0.4,0.6-1.2,0.8-1.8c0.2-0.4,0.3-0.8,0.5-1.1c0.1-0.1,0.2-0.8,0.3-1.3 c0.1-0.6,0.2-1,0.3-1.2c0.8-1.9,1-2.3,1-4.3c0-1.3-0.2-2.6-0.5-3.9c-0.1-0.3,0.1-0.5,0.4-0.6c0.3-0.1,0.5,0.1,0.6,0.4 c0.4,1.4,0.6,2.8,0.6,4.2c0,2.2-0.3,2.8-1,4.6c-0.1,0.2-0.2,0.7-0.3,1.1c-0.2,0.9-0.3,1.3-0.4,1.5c-0.1,0.2-0.3,0.6-0.4,1 c-0.3,0.7-0.6,1.6-0.9,2c-1.1,1.6-3.1,3.5-6.1,5.6c-1.9,1.3-3.1,1.7-5.2,2.5l-0.8,0.3c-1.1,0.4-1.8,0.6-3.2,0.8 c-1,0.2-3,0.4-4.1,0.5C25,45,24.5,45,24,45z"/></g></svg>